<svg xmlns="http://www.w3.org/2000/svg" version="1.1" xmlns:xlink="http://www.w3.org/1999/xlink" width="512" height="512" x="0" y="0" viewBox="0 0 512 512" style="enable-background:new 0 0 512 512" xml:space="preserve" class=""><g><path d="M436 512H76c16.569 0 30-13.431 30-30 0-11.046 8.954-20 20-20h320c11.046 0 20 8.954 20 20 0 16.569-13.431 30-30 30z" fill="#ffffff" opacity="1" data-original="#ffffff" class=""></path><path d="M405.302 14.815C400.788 17.778 395.371 20 387.245 20c-24.378 0-24.378-20-48.755-20-24.374 0-24.374 20-48.748 20-24.375 0-24.375-20-48.75-20-24.374 0-24.374 20-48.748 20-24.373 0-24.373-20-48.747-20-24.375 0-24.375 20-48.75 20-8.125 0-13.541-2.222-18.055-5.185C63.52 6.167 46 15.984 46 31.741v434.277c0 9.096 7.6 16.418 16.796 15.962 7.015-.348 13-5.419 14.722-12.228C82.994 448.083 102.654 432 126 432h290c11.046 0 20-8.954 20-20V31.745c0-15.76-17.522-25.578-30.698-16.93zM271 321c0 11.046-8.954 20-20 20H131c-11.046 0-20-8.954-20-20s8.954-20 20-20h120c11.046 0 20 8.954 20 20zm80-70H131c-11.046 0-20-8.954-20-20s8.954-20 20-20h220c11.046 0 20 8.954 20 20s-8.954 20-20 20zm0-90H131c-11.046 0-20-8.954-20-20s8.954-20 20-20h220c11.046 0 20 8.954 20 20s-8.954 20-20 20z" fill="#ffffff" opacity="1" data-original="#ffffff" class=""></path></g></svg>